<?xml version="1.0" standalone="no"?><!DOCTYPE svg PUBLIC "-//W3C//DTD SVG 1.1//EN" "http://www.w3.org/Graphics/SVG/1.1/DTD/svg11.dtd"><svg t="1776235822916" class="icon" viewBox="0 0 1024 1024" version="1.1" xmlns="http://www.w3.org/2000/svg" p-id="1648" xmlns:xlink="http://www.w3.org/1999/xlink" width="200" height="200"><path d="M304 352c-8.8 0-16 7.2-16 16V704a16 16 0 0 0 16 16l16-16V368c0-8.8-7.2-16-16-16z m412.128 287.552a16 16 0 0 1-8.16-26.08c91.04-104.032 139.456-376.288 152.576-449.984L320 704h336a16 16 0 0 1 0 32H320a15.776 15.776 0 0 1-13.312-7.616C318.304 763.328 370.272 896 528 896c155.616 0 337.44-124.8 389.888-173.248-32.8-19.264-109.088-60.064-201.76-83.2z" fill="#E66910" p-id="1649"></path><path d="M952.864 706.688c-3.776-2.496-88.16-58.176-205.088-91.744 102.464-139.36 146.112-455.936 148.032-468.544a16.032 16.032 0 0 0-18.208-18.208c-12.608 1.888-329.152 45.568-468.48 148.064-33.6-116.96-89.312-201.376-91.808-205.12a16.128 16.128 0 0 0-11.744-7.072 15.776 15.776 0 0 0-12.864 4.64C283.328 78.048 96 299.648 96 496c0 156.704 126.944 211.488 181.376 227.808l-144.864 144.864a16 16 0 0 0 22.624 22.624l144.96-144.96C316.288 800.576 371.008 928 528 928c196.384 0 417.984-187.328 427.328-196.672 3.36-3.36 5.056-8.128 4.608-12.864s-3.104-9.088-7.072-11.776zM528 896c-178.368 0-205.568-185.888-208-192-6.112-2.496-192-29.632-192-208C128 340.384 252.864 158.56 301.28 106.144c19.232 32.672 59.968 108.864 83.232 201.76a16 16 0 0 0 26.048 8.16C514.496 225.088 786.784 176.64 860.512 163.52c-13.088 73.696-61.536 345.952-152.576 449.984a16.064 16.064 0 0 0 8.16 26.08c92.672 23.136 168.96 63.936 201.76 83.2C865.44 771.2 683.616 896 528 896z" fill="#413A4D" p-id="1650"></path></svg>